<svg xmlns="http://www.w3.org/2000/svg" viewBox="0 0 512 512" width="32" height="32">
  <path 
    fill="none" 
    stroke="#2563eb" 
    stroke-linecap="round" 
    stroke-linejoin="round" 
    stroke-width="32"
    d="M469.71 234.6c-7.33-9.73-34.56-16.43-46.08-33.94s-20.95-55.43-50.27-70S288 120 256 120s-88 4.11-117.36 10.69-38.75 52.36-50.27 70-38.75 24.21-46.08 33.94S29.8 305.84 32.94 336s9.14 48 9.14 48h86c14.08 0 18.66-5.29 47.46-8 31.6-3 67.24-3 80.6-3s49 0 80.6 3c28.8 2.71 33.38 8 47.46 8h86s5.86-17.84 9-48-2.04-91.67-9.35-101.4z"
  />
  <rect 
    fill="none" 
    stroke="#2563eb" 
    stroke-linecap="round" 
    stroke-linejoin="round" 
    stroke-width="32"
    x="80" y="384" width="80" height="32" rx="12"
  />
  <rect 
    fill="none" 
    stroke="#2563eb" 
    stroke-linecap="round" 
    stroke-linejoin="round" 
    stroke-width="32"
    x="352" y="384" width="80" height="32" rx="12"
  />
  <circle 
    fill="none" 
    stroke="#2563eb" 
    stroke-linecap="round" 
    stroke-linejoin="round" 
    stroke-width="32"
    cx="144" cy="288" r="28"
  />
  <circle 
    fill="none" 
    stroke="#2563eb" 
    stroke-linecap="round" 
    stroke-linejoin="round" 
    stroke-width="32"
    cx="368" cy="288" r="28"
  />
</svg>
